<mxfile host="app.diagrams.net" modified="2023-12-16T16:36:25.995Z" agent="Mozilla/5.0 (Windows NT 10.0; Win64; x64; rv:120.0) Gecko/20100101 Firefox/120.0" etag="BCdKwB6JdgxfqWXhwQ6B" version="22.1.11" type="github">
  <diagram name="Page-1" id="339XkmLA1pPg-x-4NlNF">
    <mxGraphModel dx="879" dy="449" grid="1" gridSize="10" guides="1" tooltips="1" connect="1" arrows="1" fold="1" page="1" pageScale="1" pageWidth="850" pageHeight="1100" math="0" shadow="0">
      <root>
        <mxCell id="0" />
        <mxCell id="1" parent="0" />
        <mxCell id="kAc3U678Ay5j4QduvB6V-9" style="edgeStyle=orthogonalEdgeStyle;rounded=0;orthogonalLoop=1;jettySize=auto;html=1;endArrow=none;endFill=0;entryX=0.58;entryY=0.935;entryDx=0;entryDy=0;entryPerimeter=0;" parent="1" source="kAc3U678Ay5j4QduvB6V-1" target="kAc3U678Ay5j4QduvB6V-2" edge="1">
          <mxGeometry relative="1" as="geometry" />
        </mxCell>
        <mxCell id="kAc3U678Ay5j4QduvB6V-26" value="&lt;div&gt;U12&lt;/div&gt;" style="edgeLabel;html=1;align=center;verticalAlign=middle;resizable=0;points=[];" parent="kAc3U678Ay5j4QduvB6V-9" vertex="1" connectable="0">
          <mxGeometry x="0.6094" y="-1" relative="1" as="geometry">
            <mxPoint x="-52" y="-71" as="offset" />
          </mxGeometry>
        </mxCell>
        <mxCell id="kAc3U678Ay5j4QduvB6V-1" value="" style="pointerEvents=1;verticalLabelPosition=bottom;shadow=0;dashed=0;align=center;html=1;verticalAlign=top;shape=mxgraph.electrical.resistors.resistor_1;" parent="1" vertex="1">
          <mxGeometry x="310" y="300" width="100" height="20" as="geometry" />
        </mxCell>
        <mxCell id="kAc3U678Ay5j4QduvB6V-2" value="" style="pointerEvents=1;verticalLabelPosition=bottom;shadow=0;dashed=0;align=center;html=1;verticalAlign=top;shape=mxgraph.electrical.signal_sources.dc_source_1;" parent="1" vertex="1">
          <mxGeometry x="140" y="200" width="70" height="75" as="geometry" />
        </mxCell>
        <mxCell id="kAc3U678Ay5j4QduvB6V-4" value="" style="pointerEvents=1;verticalLabelPosition=bottom;shadow=0;dashed=0;align=center;html=1;verticalAlign=top;shape=mxgraph.electrical.resistors.resistor_1;rotation=-90;" parent="1" vertex="1">
          <mxGeometry x="460" y="140" width="100" height="20" as="geometry" />
        </mxCell>
        <mxCell id="kAc3U678Ay5j4QduvB6V-5" value="&lt;div&gt;R4&lt;/div&gt;" style="pointerEvents=1;verticalLabelPosition=bottom;shadow=0;dashed=0;align=center;html=1;verticalAlign=top;shape=mxgraph.electrical.resistors.resistor_1;" parent="1" vertex="1">
          <mxGeometry x="390" y="190" width="100" height="20" as="geometry" />
        </mxCell>
        <mxCell id="kAc3U678Ay5j4QduvB6V-18" style="edgeStyle=orthogonalEdgeStyle;rounded=0;orthogonalLoop=1;jettySize=auto;html=1;exitX=1;exitY=0.5;exitDx=0;exitDy=0;exitPerimeter=0;entryX=1;entryY=0.5;entryDx=0;entryDy=0;entryPerimeter=0;" parent="1" source="kAc3U678Ay5j4QduvB6V-6" target="kAc3U678Ay5j4QduvB6V-4" edge="1">
          <mxGeometry relative="1" as="geometry">
            <mxPoint x="520" y="100.33333333333337" as="targetPoint" />
            <Array as="points">
              <mxPoint x="470" y="100" />
              <mxPoint x="470" y="100" />
            </Array>
          </mxGeometry>
        </mxCell>
        <mxCell id="kAc3U678Ay5j4QduvB6V-6" value="&lt;div&gt;R3&lt;/div&gt;" style="pointerEvents=1;verticalLabelPosition=bottom;shadow=0;dashed=0;align=center;html=1;verticalAlign=top;shape=mxgraph.electrical.resistors.resistor_1;rotation=-90;" parent="1" vertex="1">
          <mxGeometry x="320" y="140" width="100" height="20" as="geometry" />
        </mxCell>
        <mxCell id="kAc3U678Ay5j4QduvB6V-12" style="edgeStyle=orthogonalEdgeStyle;rounded=0;orthogonalLoop=1;jettySize=auto;html=1;entryX=0;entryY=0.5;entryDx=0;entryDy=0;entryPerimeter=0;exitX=0;exitY=0.5;exitDx=0;exitDy=0;exitPerimeter=0;" parent="1" source="kAc3U678Ay5j4QduvB6V-7" target="kAc3U678Ay5j4QduvB6V-8" edge="1">
          <mxGeometry relative="1" as="geometry">
            <mxPoint x="240" y="130" as="targetPoint" />
          </mxGeometry>
        </mxCell>
        <mxCell id="kAc3U678Ay5j4QduvB6V-7" value="&lt;div&gt;R2&lt;/div&gt;" style="pointerEvents=1;verticalLabelPosition=bottom;shadow=0;dashed=0;align=center;html=1;verticalAlign=top;shape=mxgraph.electrical.resistors.resistor_1;" parent="1" vertex="1">
          <mxGeometry x="260" y="190" width="100" height="20" as="geometry" />
        </mxCell>
        <mxCell id="kAc3U678Ay5j4QduvB6V-8" value="&lt;div&gt;R1&lt;/div&gt;" style="pointerEvents=1;verticalLabelPosition=bottom;shadow=0;dashed=0;align=center;html=1;verticalAlign=top;shape=mxgraph.electrical.resistors.resistor_1;" parent="1" vertex="1">
          <mxGeometry x="260" y="90" width="100" height="20" as="geometry" />
        </mxCell>
        <mxCell id="kAc3U678Ay5j4QduvB6V-11" style="edgeStyle=orthogonalEdgeStyle;rounded=0;orthogonalLoop=1;jettySize=auto;html=1;exitX=0;exitY=0.5;exitDx=0;exitDy=0;exitPerimeter=0;entryX=0.58;entryY=0.135;entryDx=0;entryDy=0;entryPerimeter=0;" parent="1" source="kAc3U678Ay5j4QduvB6V-8" target="kAc3U678Ay5j4QduvB6V-2" edge="1">
          <mxGeometry relative="1" as="geometry" />
        </mxCell>
        <mxCell id="kAc3U678Ay5j4QduvB6V-14" style="edgeStyle=orthogonalEdgeStyle;rounded=0;orthogonalLoop=1;jettySize=auto;html=1;exitX=1;exitY=0.5;exitDx=0;exitDy=0;exitPerimeter=0;entryX=1.03;entryY=-0.289;entryDx=0;entryDy=0;entryPerimeter=0;" parent="1" source="kAc3U678Ay5j4QduvB6V-6" target="kAc3U678Ay5j4QduvB6V-6" edge="1">
          <mxGeometry relative="1" as="geometry" />
        </mxCell>
        <mxCell id="kAc3U678Ay5j4QduvB6V-15" style="edgeStyle=orthogonalEdgeStyle;rounded=0;orthogonalLoop=1;jettySize=auto;html=1;exitX=0;exitY=0.5;exitDx=0;exitDy=0;exitPerimeter=0;entryX=0.019;entryY=0.044;entryDx=0;entryDy=0;entryPerimeter=0;" parent="1" source="kAc3U678Ay5j4QduvB6V-6" target="kAc3U678Ay5j4QduvB6V-6" edge="1">
          <mxGeometry relative="1" as="geometry" />
        </mxCell>
        <mxCell id="kAc3U678Ay5j4QduvB6V-17" style="edgeStyle=orthogonalEdgeStyle;rounded=0;orthogonalLoop=1;jettySize=auto;html=1;exitX=0;exitY=0.5;exitDx=0;exitDy=0;exitPerimeter=0;entryX=0.13;entryY=0.656;entryDx=0;entryDy=0;entryPerimeter=0;" parent="1" source="kAc3U678Ay5j4QduvB6V-5" target="kAc3U678Ay5j4QduvB6V-6" edge="1">
          <mxGeometry relative="1" as="geometry" />
        </mxCell>
        <mxCell id="kAc3U678Ay5j4QduvB6V-20" style="edgeStyle=orthogonalEdgeStyle;rounded=0;orthogonalLoop=1;jettySize=auto;html=1;exitX=0;exitY=0.5;exitDx=0;exitDy=0;exitPerimeter=0;entryX=1;entryY=0.5;entryDx=0;entryDy=0;entryPerimeter=0;" parent="1" source="kAc3U678Ay5j4QduvB6V-4" target="kAc3U678Ay5j4QduvB6V-5" edge="1">
          <mxGeometry relative="1" as="geometry" />
        </mxCell>
        <mxCell id="kAc3U678Ay5j4QduvB6V-21" style="edgeStyle=orthogonalEdgeStyle;rounded=0;orthogonalLoop=1;jettySize=auto;html=1;exitX=1;exitY=0.5;exitDx=0;exitDy=0;exitPerimeter=0;entryX=0;entryY=0.5;entryDx=0;entryDy=0;entryPerimeter=0;" parent="1" source="kAc3U678Ay5j4QduvB6V-1" target="kAc3U678Ay5j4QduvB6V-4" edge="1">
          <mxGeometry relative="1" as="geometry" />
        </mxCell>
        <mxCell id="kAc3U678Ay5j4QduvB6V-23" value="R78" style="edgeLabel;html=1;align=center;verticalAlign=middle;resizable=0;points=[];" parent="kAc3U678Ay5j4QduvB6V-21" vertex="1" connectable="0">
          <mxGeometry x="-0.504" y="1" relative="1" as="geometry">
            <mxPoint x="-102" y="21" as="offset" />
          </mxGeometry>
        </mxCell>
        <mxCell id="kAc3U678Ay5j4QduvB6V-25" value="&lt;div&gt;R56&lt;/div&gt;" style="edgeLabel;html=1;align=center;verticalAlign=middle;resizable=0;points=[];" parent="kAc3U678Ay5j4QduvB6V-21" vertex="1" connectable="0">
          <mxGeometry x="0.7901" y="-2" relative="1" as="geometry">
            <mxPoint x="18" y="-77" as="offset" />
          </mxGeometry>
        </mxCell>
        <mxCell id="o4Xmm3pkzXx5LNzKFWfN-1" style="edgeStyle=orthogonalEdgeStyle;rounded=0;orthogonalLoop=1;jettySize=auto;html=1;endArrow=none;endFill=0;entryX=0.58;entryY=0.935;entryDx=0;entryDy=0;entryPerimeter=0;" edge="1" parent="1" source="o4Xmm3pkzXx5LNzKFWfN-3" target="o4Xmm3pkzXx5LNzKFWfN-4">
          <mxGeometry relative="1" as="geometry" />
        </mxCell>
        <mxCell id="o4Xmm3pkzXx5LNzKFWfN-2" value="&lt;div&gt;U12&lt;/div&gt;" style="edgeLabel;html=1;align=center;verticalAlign=middle;resizable=0;points=[];" vertex="1" connectable="0" parent="o4Xmm3pkzXx5LNzKFWfN-1">
          <mxGeometry x="0.6094" y="-1" relative="1" as="geometry">
            <mxPoint x="-52" y="-71" as="offset" />
          </mxGeometry>
        </mxCell>
        <mxCell id="o4Xmm3pkzXx5LNzKFWfN-3" value="" style="pointerEvents=1;verticalLabelPosition=bottom;shadow=0;dashed=0;align=center;html=1;verticalAlign=top;shape=mxgraph.electrical.resistors.resistor_1;" vertex="1" parent="1">
          <mxGeometry x="230" y="590" width="100" height="20" as="geometry" />
        </mxCell>
        <mxCell id="o4Xmm3pkzXx5LNzKFWfN-4" value="" style="pointerEvents=1;verticalLabelPosition=bottom;shadow=0;dashed=0;align=center;html=1;verticalAlign=top;shape=mxgraph.electrical.signal_sources.dc_source_1;" vertex="1" parent="1">
          <mxGeometry x="60" y="490" width="70" height="75" as="geometry" />
        </mxCell>
        <mxCell id="o4Xmm3pkzXx5LNzKFWfN-5" value="" style="pointerEvents=1;verticalLabelPosition=bottom;shadow=0;dashed=0;align=center;html=1;verticalAlign=top;shape=mxgraph.electrical.resistors.resistor_1;rotation=-90;" vertex="1" parent="1">
          <mxGeometry x="380" y="430" width="100" height="20" as="geometry" />
        </mxCell>
        <mxCell id="o4Xmm3pkzXx5LNzKFWfN-6" value="&lt;div&gt;R4&lt;/div&gt;" style="pointerEvents=1;verticalLabelPosition=bottom;shadow=0;dashed=0;align=center;html=1;verticalAlign=top;shape=mxgraph.electrical.resistors.resistor_1;" vertex="1" parent="1">
          <mxGeometry x="310" y="480" width="100" height="20" as="geometry" />
        </mxCell>
        <mxCell id="o4Xmm3pkzXx5LNzKFWfN-7" style="edgeStyle=orthogonalEdgeStyle;rounded=0;orthogonalLoop=1;jettySize=auto;html=1;exitX=1;exitY=0.5;exitDx=0;exitDy=0;exitPerimeter=0;entryX=1;entryY=0.5;entryDx=0;entryDy=0;entryPerimeter=0;" edge="1" parent="1" source="o4Xmm3pkzXx5LNzKFWfN-8" target="o4Xmm3pkzXx5LNzKFWfN-5">
          <mxGeometry relative="1" as="geometry">
            <mxPoint x="440" y="390.33333333333337" as="targetPoint" />
            <Array as="points">
              <mxPoint x="390" y="390" />
              <mxPoint x="390" y="390" />
            </Array>
          </mxGeometry>
        </mxCell>
        <mxCell id="o4Xmm3pkzXx5LNzKFWfN-8" value="&lt;div&gt;R3&lt;/div&gt;" style="pointerEvents=1;verticalLabelPosition=bottom;shadow=0;dashed=0;align=center;html=1;verticalAlign=top;shape=mxgraph.electrical.resistors.resistor_1;rotation=-90;" vertex="1" parent="1">
          <mxGeometry x="240" y="430" width="100" height="20" as="geometry" />
        </mxCell>
        <mxCell id="o4Xmm3pkzXx5LNzKFWfN-9" style="edgeStyle=orthogonalEdgeStyle;rounded=0;orthogonalLoop=1;jettySize=auto;html=1;entryX=0;entryY=0.5;entryDx=0;entryDy=0;entryPerimeter=0;exitX=0;exitY=0.5;exitDx=0;exitDy=0;exitPerimeter=0;" edge="1" parent="1" source="o4Xmm3pkzXx5LNzKFWfN-10" target="o4Xmm3pkzXx5LNzKFWfN-11">
          <mxGeometry relative="1" as="geometry">
            <mxPoint x="160" y="420" as="targetPoint" />
          </mxGeometry>
        </mxCell>
        <mxCell id="o4Xmm3pkzXx5LNzKFWfN-10" value="&lt;div&gt;R2&lt;/div&gt;" style="pointerEvents=1;verticalLabelPosition=bottom;shadow=0;dashed=0;align=center;html=1;verticalAlign=top;shape=mxgraph.electrical.resistors.resistor_1;" vertex="1" parent="1">
          <mxGeometry x="180" y="480" width="100" height="20" as="geometry" />
        </mxCell>
        <mxCell id="o4Xmm3pkzXx5LNzKFWfN-11" value="&lt;div&gt;R1&lt;/div&gt;" style="pointerEvents=1;verticalLabelPosition=bottom;shadow=0;dashed=0;align=center;html=1;verticalAlign=top;shape=mxgraph.electrical.resistors.resistor_1;" vertex="1" parent="1">
          <mxGeometry x="180" y="380" width="100" height="20" as="geometry" />
        </mxCell>
        <mxCell id="o4Xmm3pkzXx5LNzKFWfN-12" style="edgeStyle=orthogonalEdgeStyle;rounded=0;orthogonalLoop=1;jettySize=auto;html=1;exitX=0;exitY=0.5;exitDx=0;exitDy=0;exitPerimeter=0;entryX=0.58;entryY=0.135;entryDx=0;entryDy=0;entryPerimeter=0;" edge="1" parent="1" source="o4Xmm3pkzXx5LNzKFWfN-11" target="o4Xmm3pkzXx5LNzKFWfN-4">
          <mxGeometry relative="1" as="geometry" />
        </mxCell>
        <mxCell id="o4Xmm3pkzXx5LNzKFWfN-13" style="edgeStyle=orthogonalEdgeStyle;rounded=0;orthogonalLoop=1;jettySize=auto;html=1;exitX=1;exitY=0.5;exitDx=0;exitDy=0;exitPerimeter=0;entryX=1.03;entryY=-0.289;entryDx=0;entryDy=0;entryPerimeter=0;" edge="1" parent="1" source="o4Xmm3pkzXx5LNzKFWfN-8" target="o4Xmm3pkzXx5LNzKFWfN-8">
          <mxGeometry relative="1" as="geometry" />
        </mxCell>
        <mxCell id="o4Xmm3pkzXx5LNzKFWfN-14" style="edgeStyle=orthogonalEdgeStyle;rounded=0;orthogonalLoop=1;jettySize=auto;html=1;exitX=0;exitY=0.5;exitDx=0;exitDy=0;exitPerimeter=0;entryX=0.019;entryY=0.044;entryDx=0;entryDy=0;entryPerimeter=0;" edge="1" parent="1" source="o4Xmm3pkzXx5LNzKFWfN-8" target="o4Xmm3pkzXx5LNzKFWfN-8">
          <mxGeometry relative="1" as="geometry" />
        </mxCell>
        <mxCell id="o4Xmm3pkzXx5LNzKFWfN-15" style="edgeStyle=orthogonalEdgeStyle;rounded=0;orthogonalLoop=1;jettySize=auto;html=1;exitX=0;exitY=0.5;exitDx=0;exitDy=0;exitPerimeter=0;entryX=0.13;entryY=0.656;entryDx=0;entryDy=0;entryPerimeter=0;" edge="1" parent="1" source="o4Xmm3pkzXx5LNzKFWfN-6" target="o4Xmm3pkzXx5LNzKFWfN-8">
          <mxGeometry relative="1" as="geometry" />
        </mxCell>
        <mxCell id="o4Xmm3pkzXx5LNzKFWfN-16" style="edgeStyle=orthogonalEdgeStyle;rounded=0;orthogonalLoop=1;jettySize=auto;html=1;exitX=0;exitY=0.5;exitDx=0;exitDy=0;exitPerimeter=0;entryX=1;entryY=0.5;entryDx=0;entryDy=0;entryPerimeter=0;" edge="1" parent="1" source="o4Xmm3pkzXx5LNzKFWfN-5" target="o4Xmm3pkzXx5LNzKFWfN-6">
          <mxGeometry relative="1" as="geometry" />
        </mxCell>
        <mxCell id="o4Xmm3pkzXx5LNzKFWfN-17" style="edgeStyle=orthogonalEdgeStyle;rounded=0;orthogonalLoop=1;jettySize=auto;html=1;exitX=1;exitY=0.5;exitDx=0;exitDy=0;exitPerimeter=0;entryX=0;entryY=0.5;entryDx=0;entryDy=0;entryPerimeter=0;" edge="1" parent="1" source="o4Xmm3pkzXx5LNzKFWfN-3" target="o4Xmm3pkzXx5LNzKFWfN-5">
          <mxGeometry relative="1" as="geometry" />
        </mxCell>
        <mxCell id="o4Xmm3pkzXx5LNzKFWfN-18" value="R78" style="edgeLabel;html=1;align=center;verticalAlign=middle;resizable=0;points=[];" vertex="1" connectable="0" parent="o4Xmm3pkzXx5LNzKFWfN-17">
          <mxGeometry x="-0.504" y="1" relative="1" as="geometry">
            <mxPoint x="-102" y="21" as="offset" />
          </mxGeometry>
        </mxCell>
        <mxCell id="o4Xmm3pkzXx5LNzKFWfN-19" value="&lt;div&gt;R56&lt;/div&gt;" style="edgeLabel;html=1;align=center;verticalAlign=middle;resizable=0;points=[];" vertex="1" connectable="0" parent="o4Xmm3pkzXx5LNzKFWfN-17">
          <mxGeometry x="0.7901" y="-2" relative="1" as="geometry">
            <mxPoint x="18" y="-77" as="offset" />
          </mxGeometry>
        </mxCell>
      </root>
    </mxGraphModel>
  </diagram>
</mxfile>
